<svg width="100" height="131" viewBox="0 0 100 131" fill="none" xmlns="http://www.w3.org/2000/svg">
<path d="M0 33.3333V66.6667H33.3333V100H66.6667V66.6667L33.3333 33.3333H0Z" fill="#1FCCD7"/>
<path d="M99.3333 66.6667L99.3333 33.3333L66 33.3333L66 4.7153e-06L32.6667 1.80121e-06L32.6667 33.3333L66.5 67.1667L99.3333 66.6667Z" fill="#0A868C"/>
<path d="M49.3333 55.3333L49.3333 9.33333L17.3333 55.3333L49.3333 55.3333Z" fill="white"/>
<path d="M49.3333 46.3333L49.3333 92.3333L81.3333 46.3333L49.3333 46.3333Z" fill="white"/>
<path d="M25.6006 123.206C24.7868 123.905 23.8753 124.443 22.8662 124.817C21.8571 125.191 20.8114 125.378 19.729 125.378C18.8989 125.378 18.0973 125.269 17.3242 125.049C16.5592 124.837 15.839 124.536 15.1636 124.146C14.4963 123.747 13.8859 123.271 13.3325 122.717C12.7791 122.164 12.3031 121.554 11.9043 120.886C11.5137 120.211 11.2085 119.491 10.9888 118.726C10.7772 117.952 10.6714 117.151 10.6714 116.321C10.6714 115.491 10.7772 114.689 10.9888 113.916C11.2085 113.143 11.5137 112.423 11.9043 111.755C12.3031 111.08 12.7791 110.465 13.3325 109.912C13.8859 109.359 14.4963 108.887 15.1636 108.496C15.839 108.097 16.5592 107.792 17.3242 107.581C18.0973 107.361 18.8989 107.251 19.729 107.251C20.8114 107.251 21.8571 107.438 22.8662 107.812C23.8753 108.179 24.7868 108.716 25.6006 109.424L23.7451 112.476C23.2324 111.922 22.6261 111.499 21.9263 111.206C21.2264 110.905 20.494 110.754 19.729 110.754C18.9559 110.754 18.2316 110.901 17.5562 111.194C16.8807 111.487 16.2907 111.886 15.7861 112.39C15.2816 112.887 14.8828 113.477 14.5898 114.16C14.2969 114.836 14.1504 115.556 14.1504 116.321C14.1504 117.086 14.2969 117.806 14.5898 118.481C14.8828 119.149 15.2816 119.735 15.7861 120.239C16.2907 120.744 16.8807 121.143 17.5562 121.436C18.2316 121.729 18.9559 121.875 19.729 121.875C20.494 121.875 21.2264 121.729 21.9263 121.436C22.6261 121.134 23.2324 120.707 23.7451 120.154L25.6006 123.206ZM39.48 125H38.6743L37.3804 123.206C37.063 123.49 36.7253 123.759 36.3672 124.011C36.0173 124.255 35.647 124.471 35.2563 124.658C34.8657 124.837 34.4629 124.98 34.0479 125.085C33.641 125.191 33.2259 125.244 32.8027 125.244C31.8831 125.244 31.0164 125.09 30.2026 124.78C29.397 124.471 28.689 124.023 28.0786 123.438C27.4764 122.843 27.0003 122.119 26.6504 121.265C26.3005 120.41 26.1255 119.438 26.1255 118.347C26.1255 117.33 26.3005 116.398 26.6504 115.552C27.0003 114.697 27.4764 113.965 28.0786 113.354C28.689 112.744 29.397 112.272 30.2026 111.938C31.0164 111.597 31.8831 111.426 32.8027 111.426C33.2259 111.426 33.645 111.479 34.0601 111.584C34.4751 111.69 34.8779 111.837 35.2686 112.024C35.6592 112.211 36.0295 112.431 36.3794 112.683C36.7375 112.935 37.0711 113.208 37.3804 113.501L38.6743 111.951H39.48V125ZM36.123 118.347C36.123 117.891 36.0335 117.452 35.8545 117.029C35.6836 116.597 35.4476 116.219 35.1465 115.894C34.8454 115.56 34.4914 115.295 34.0845 115.1C33.6857 114.897 33.2585 114.795 32.8027 114.795C32.347 114.795 31.9157 114.872 31.5088 115.027C31.11 115.181 30.7601 115.409 30.459 115.71C30.166 116.012 29.9341 116.386 29.7632 116.833C29.5923 117.273 29.5068 117.778 29.5068 118.347C29.5068 118.917 29.5923 119.425 29.7632 119.873C29.9341 120.312 30.166 120.683 30.459 120.984C30.7601 121.285 31.11 121.513 31.5088 121.667C31.9157 121.822 32.347 121.899 32.8027 121.899C33.2585 121.899 33.6857 121.802 34.0845 121.606C34.4914 121.403 34.8454 121.139 35.1465 120.813C35.4476 120.479 35.6836 120.101 35.8545 119.678C36.0335 119.246 36.123 118.803 36.123 118.347ZM45.3638 125H42.0312V111.926H42.8369L43.9355 113.477C44.4727 112.988 45.083 112.614 45.7666 112.354C46.4502 112.085 47.1582 111.951 47.8906 111.951H50.8325V115.271H47.8906C47.5407 115.271 47.2111 115.336 46.9019 115.466C46.5926 115.597 46.3241 115.776 46.0962 116.003C45.8683 116.231 45.6893 116.5 45.5591 116.809C45.4289 117.118 45.3638 117.448 45.3638 117.798V125ZM64.7729 125H63.9673L62.6733 123.206C62.356 123.49 62.0182 123.759 61.6602 124.011C61.3102 124.255 60.9399 124.471 60.5493 124.658C60.1587 124.837 59.7559 124.98 59.3408 125.085C58.9339 125.191 58.5189 125.244 58.0957 125.244C57.1761 125.244 56.3094 125.073 55.4956 124.731C54.6899 124.382 53.9819 123.901 53.3716 123.291C52.7694 122.673 52.2933 121.944 51.9434 121.106C51.5934 120.26 51.4185 119.34 51.4185 118.347C51.4185 117.362 51.5934 116.447 51.9434 115.601C52.2933 114.754 52.7694 114.022 53.3716 113.403C53.9819 112.785 54.6899 112.301 55.4956 111.951C56.3094 111.601 57.1761 111.426 58.0957 111.426C58.3887 111.426 58.6898 111.45 58.999 111.499C59.3164 111.548 59.6216 111.629 59.9146 111.743C60.2157 111.849 60.4964 111.991 60.7568 112.17C61.0173 112.349 61.237 112.569 61.416 112.83V106.726H64.7729V125ZM61.416 118.347C61.416 117.891 61.3265 117.452 61.1475 117.029C60.9766 116.597 60.7406 116.219 60.4395 115.894C60.1383 115.56 59.7843 115.295 59.3774 115.1C58.9787 114.897 58.5514 114.795 58.0957 114.795C57.64 114.795 57.2087 114.876 56.8018 115.039C56.403 115.202 56.0531 115.438 55.752 115.747C55.459 116.048 55.2271 116.418 55.0562 116.858C54.8853 117.297 54.7998 117.794 54.7998 118.347C54.7998 118.827 54.8853 119.283 55.0562 119.714C55.2271 120.146 55.459 120.524 55.752 120.85C56.0531 121.175 56.403 121.431 56.8018 121.619C57.2087 121.806 57.64 121.899 58.0957 121.899C58.5514 121.899 58.9787 121.802 59.3774 121.606C59.7843 121.403 60.1383 121.139 60.4395 120.813C60.7406 120.479 60.9766 120.101 61.1475 119.678C61.3265 119.246 61.416 118.803 61.416 118.347ZM71.2549 108.374C71.2549 108.683 71.1938 108.972 71.0718 109.241C70.9578 109.509 70.7992 109.745 70.5957 109.949C70.3923 110.144 70.1522 110.303 69.8755 110.425C69.6069 110.539 69.318 110.596 69.0088 110.596C68.6995 110.596 68.4066 110.539 68.1299 110.425C67.8613 110.303 67.6253 110.144 67.4219 109.949C67.2266 109.745 67.0679 109.509 66.9458 109.241C66.8319 108.972 66.7749 108.683 66.7749 108.374C66.7749 108.073 66.8319 107.788 66.9458 107.52C67.0679 107.243 67.2266 107.007 67.4219 106.812C67.6253 106.608 67.8613 106.449 68.1299 106.335C68.4066 106.213 68.6995 106.152 69.0088 106.152C69.318 106.152 69.6069 106.213 69.8755 106.335C70.1522 106.449 70.3923 106.608 70.5957 106.812C70.7992 107.007 70.9578 107.243 71.0718 107.52C71.1938 107.788 71.2549 108.073 71.2549 108.374ZM70.6812 125H67.3242V111.926H70.6812V125ZM85.8667 118.347C85.8667 119.324 85.6917 120.235 85.3418 121.082C84.9919 121.92 84.5158 122.648 83.9136 123.267C83.3114 123.877 82.6034 124.361 81.7896 124.719C80.9839 125.069 80.1172 125.244 79.1895 125.244C78.2699 125.244 77.4032 125.069 76.5894 124.719C75.7837 124.361 75.0757 123.877 74.4653 123.267C73.8631 122.648 73.387 121.92 73.0371 121.082C72.6872 120.235 72.5122 119.324 72.5122 118.347C72.5122 117.354 72.6872 116.435 73.0371 115.588C73.387 114.742 73.8631 114.014 74.4653 113.403C75.0757 112.785 75.7837 112.301 76.5894 111.951C77.4032 111.601 78.2699 111.426 79.1895 111.426C80.1172 111.426 80.9839 111.593 81.7896 111.926C82.6034 112.252 83.3114 112.72 83.9136 113.33C84.5158 113.932 84.9919 114.661 85.3418 115.515C85.6917 116.361 85.8667 117.306 85.8667 118.347ZM82.5098 118.347C82.5098 117.81 82.4202 117.326 82.2412 116.895C82.0703 116.455 81.8343 116.081 81.5332 115.771C81.2321 115.454 80.8781 115.214 80.4712 115.051C80.0724 114.88 79.6452 114.795 79.1895 114.795C78.7337 114.795 78.3024 114.88 77.8955 115.051C77.4967 115.214 77.1468 115.454 76.8457 115.771C76.5527 116.081 76.3208 116.455 76.1499 116.895C75.979 117.326 75.8936 117.81 75.8936 118.347C75.8936 118.852 75.979 119.32 76.1499 119.751C76.3208 120.182 76.5527 120.557 76.8457 120.874C77.1468 121.191 77.4967 121.444 77.8955 121.631C78.3024 121.81 78.7337 121.899 79.1895 121.899C79.6452 121.899 80.0724 121.814 80.4712 121.643C80.8781 121.472 81.2321 121.232 81.5332 120.923C81.8343 120.614 82.0703 120.239 82.2412 119.8C82.4202 119.36 82.5098 118.876 82.5098 118.347Z" fill="black"/>
</svg>
